<?xml version="1.0" encoding="utf-8"?>
<!-- Generator: Adobe Illustrator 18.0.0, SVG Export Plug-In . SVG Version: 6.00 Build 0)  -->
<!DOCTYPE svg PUBLIC "-//W3C//DTD SVG 1.1//EN" "http://www.w3.org/Graphics/SVG/1.1/DTD/svg11.dtd">
<svg version="1.1" xmlns="http://www.w3.org/2000/svg" xmlns:xlink="http://www.w3.org/1999/xlink" x="0px" y="0px"
	 viewBox="0 0 500 500" enable-background="new 0 0 500 500" xml:space="preserve">
<g id="BACKGROUND">
</g>
<g id="OBJECTS">
	<g>
		<g>
			<rect x="57.7" y="46.2" fill="#E6EDF5" width="302" height="191.6"/>
			<rect x="57.7" y="46.2" fill="#7B95BA" width="302" height="12.3"/>
			<g>
				<circle fill="#D9B487" cx="65" cy="52.3" r="2.2"/>
				<circle fill="#F5DEBF" cx="71.6" cy="52.3" r="2.2"/>
				<circle fill="#F5DEBF" cx="78.2" cy="52.3" r="2.2"/>
			</g>
		</g>
		<g>
			<g>
				<g>
					<path fill="#7B95BA" d="M71.6,114.6L71.6,114.6c-2.2,0-4.3-0.3-6.3-0.9c-1-0.3-1.6-1.5-1.2-2.5l2.2-5.3
						c0.4-0.9,1.3-1.3,2.2-1.1c0.5,0.1,1,0.2,1.4,0.3c0.9,0.1,1.6,0.9,1.6,1.8L71.6,114.6z M79,111.1l-2.2-5.3
						c-0.4-0.9,0-1.8,0.8-2.3c0.4-0.3,0.8-0.5,1.2-0.8c0.7-0.6,1.8-0.5,2.5,0.1l4,4c0.8,0.8,0.7,2-0.1,2.7c-1.1,0.9-2.3,1.7-3.6,2.4
						C80.7,112.6,79.4,112.2,79,111.1z M55,106.8c-0.9-1.1-1.7-2.3-2.4-3.6c-0.5-1-0.1-2.2,0.9-2.6l5.3-2.2c0.9-0.4,1.8,0,2.3,0.8
						c0.3,0.4,0.5,0.8,0.8,1.2c0.6,0.7,0.5,1.8-0.1,2.5l-4,4C57,107.7,55.7,107.6,55,106.8z M89.6,100.6l-5.3-2.2
						c-0.9-0.4-1.3-1.3-1.1-2.2c0.1-0.5,0.2-1,0.3-1.5c0.1-0.9,0.9-1.6,1.8-1.6L93,93v0.1c0,2.2-0.3,4.3-0.9,6.3
						C91.8,100.4,90.6,101,89.6,100.6z M50,93.1L50,93.1c0-2.2,0.3-4.3,0.9-6.3c0.3-1,1.5-1.6,2.5-1.2l5.3,2.2
						c0.9,0.4,1.3,1.3,1.1,2.2c-0.1,0.5-0.2,0.9-0.3,1.4c-0.1,0.9-0.9,1.6-1.8,1.6L50,93.1z M82,86.9c-0.3-0.4-0.5-0.8-0.8-1.2
						c-0.6-0.7-0.5-1.8,0.1-2.5l4-4c0.8-0.8,2-0.7,2.7,0.1c0.9,1.1,1.7,2.3,2.4,3.6c0.5,1,0.1,2.2-0.9,2.6l-5.3,2.2
						C83.5,88.1,82.5,87.7,82,86.9z M61.7,83.3l-4-4c-0.8-0.8-0.7-2,0.1-2.7c1.1-0.9,2.3-1.7,3.6-2.4c1-0.5,2.2-0.1,2.6,0.9l2.2,5.3
						c0.4,0.9,0,1.8-0.8,2.3c-0.4,0.3-0.8,0.5-1.2,0.8C63.4,84,62.4,84,61.7,83.3z M74.6,81.3c-0.5-0.1-0.9-0.2-1.4-0.3
						c-0.9-0.1-1.6-0.9-1.6-1.8l0-7.6h0.1c2.1,0,4.2,0.3,6.2,0.9c1,0.3,1.6,1.5,1.2,2.5l-2.2,5.3C76.4,81.1,75.5,81.6,74.6,81.3z"/>
				</g>
				<path fill="#7B95BA" d="M71.5,76.3c-9.3,0-16.8,7.5-16.8,16.8s7.5,16.8,16.8,16.8s16.8-7.5,16.8-16.8S80.8,76.3,71.5,76.3z
					 M71.5,100.4c-4,0-7.3-3.3-7.3-7.3c0-4,3.3-7.3,7.3-7.3c4,0,7.3,3.3,7.3,7.3C78.8,97.1,75.6,100.4,71.5,100.4z"/>
			</g>
			<g>
				<g>
					<path fill="#B4C7E0" d="M71.6,113.2L71.6,113.2c-2.4,0-4.8-0.4-7-1.2c-0.7-0.2-1-1-0.7-1.6l2.6-6.4c0.2-0.6,0.9-0.9,1.5-0.7
						c0.8,0.3,1.6,0.4,2.5,0.5c0.6,0.1,1.1,0.6,1.1,1.2L71.6,113.2z M79.3,110.4l-2.6-6.4c-0.2-0.6,0-1.3,0.5-1.6
						c0.8-0.4,1.5-0.9,2.1-1.4c0.5-0.4,1.2-0.4,1.6,0.1l4.9,4.9c0.5,0.5,0.5,1.3,0,1.8c-1.5,1.3-3.1,2.4-4.9,3.3
						C80.3,111.4,79.6,111.1,79.3,110.4z M55.5,106c-1.3-1.5-2.4-3.1-3.3-4.9c-0.3-0.6,0-1.4,0.7-1.7l6.4-2.7c0.6-0.2,1.3,0,1.6,0.5
						c0.4,0.8,0.9,1.5,1.4,2.1c0.4,0.5,0.4,1.2-0.1,1.6l-4.9,4.9C56.8,106.6,55.9,106.6,55.5,106z M90.2,99.5l-6.4-2.6
						c-0.6-0.2-0.9-0.9-0.7-1.5c0.3-0.8,0.4-1.7,0.5-2.5c0.1-0.6,0.6-1.1,1.2-1.1l8.2-0.1v0.1c0,2.4-0.4,4.8-1.2,7
						C91.6,99.4,90.9,99.8,90.2,99.5z M50,91.8L50,91.8c0-2.4,0.4-4.8,1.2-7c0.2-0.7,1-1,1.6-0.7l6.4,2.6c0.6,0.2,0.9,0.9,0.7,1.5
						c-0.2,0.8-0.4,1.6-0.5,2.5c-0.1,0.6-0.6,1.1-1.2,1.1L50,91.8z M82.3,86.1c-0.4-0.8-0.9-1.5-1.4-2.1c-0.4-0.5-0.4-1.2,0.1-1.6
						l4.9-4.9c0.5-0.5,1.3-0.5,1.8,0c1.3,1.5,2.4,3.1,3.3,4.8c0.3,0.6,0,1.4-0.7,1.7l-6.4,2.7C83.2,86.9,82.6,86.6,82.3,86.1z
						 M62.1,82.4l-4.9-4.9c-0.5-0.5-0.5-1.3,0-1.8c1.5-1.3,3.1-2.4,4.9-3.3c0.6-0.3,1.4,0,1.7,0.7l2.7,6.4c0.2,0.6,0,1.3-0.5,1.6
						c-0.8,0.4-1.5,0.9-2.1,1.4C63.3,82.9,62.5,82.8,62.1,82.4z M75.1,80.2c-0.8-0.2-1.6-0.4-2.5-0.5c-0.6-0.1-1.1-0.6-1.1-1.2
						l0-8.2h0.1c2.4,0,4.7,0.4,7,1.2c0.7,0.2,1,1,0.7,1.6l-2.6,6.4C76.3,80,75.7,80.3,75.1,80.2z"/>
				</g>
				<path fill="#B4C7E0" d="M71.5,74.9c-9.3,0-16.8,7.5-16.8,16.8c0,9.3,7.5,16.8,16.8,16.8s16.8-7.5,16.8-16.8
					C88.3,82.5,80.8,74.9,71.5,74.9z M71.5,99c-4,0-7.3-3.3-7.3-7.3c0-4,3.3-7.3,7.3-7.3c4,0,7.3,3.3,7.3,7.3
					C78.8,95.8,75.6,99,71.5,99z"/>
			</g>
		</g>
		<g>
			<g>
				<path opacity="0.6" fill="#B4C7E0" d="M99.8,154.5H71.4c-3.3,0-6-2.7-6-6v-13c0-3.3,2.7-6,6-6h28.4c3.3,0,6,2.7,6,6v13
					C105.8,151.8,103.1,154.5,99.8,154.5z"/>
				<path fill="#F8ECED" d="M101,152H72.6c-3.3,0-6-2.7-6-6v-13c0-3.3,2.7-6,6-6H101c3.3,0,6,2.7,6,6v13
					C107,149.3,104.3,152,101,152z"/>
			</g>
			<g>
				<path fill="#6C8585" d="M78.6,138.2c0.5,0.5,0.7,1.3,0.7,2.2v4h-1.4v-3.9c0-0.6-0.2-1.1-0.5-1.4c-0.3-0.3-0.8-0.5-1.3-0.5
					c-0.6,0-1,0.2-1.4,0.5c-0.3,0.4-0.5,0.9-0.5,1.6v3.7h-1.4v-9.3h1.4v3.9c0.2-0.5,0.5-0.9,0.9-1.2c0.4-0.3,0.9-0.4,1.5-0.4
					C77.5,137.5,78.1,137.7,78.6,138.2z"/>
				<path fill="#6C8585" d="M84.5,143.2v1.2h-0.9c-0.7,0-1.3-0.2-1.7-0.5c-0.4-0.4-0.6-0.9-0.6-1.8v-3.4h-1v-1.2h1v-1.7h1.4v1.7h1.7
					v1.2h-1.7v3.4c0,0.4,0.1,0.7,0.2,0.8c0.1,0.2,0.4,0.2,0.8,0.2H84.5z"/>
				<path fill="#6C8585" d="M96.4,138.2c0.5,0.5,0.7,1.3,0.7,2.2v4h-1.4v-3.9c0-0.6-0.2-1.1-0.5-1.4c-0.3-0.3-0.7-0.5-1.2-0.5
					c-0.6,0-1,0.2-1.3,0.5c-0.3,0.4-0.5,0.9-0.5,1.6v3.7h-1.4v-3.9c0-0.6-0.2-1.1-0.5-1.4c-0.3-0.3-0.7-0.5-1.2-0.5
					c-0.6,0-1,0.2-1.3,0.5c-0.3,0.4-0.5,0.9-0.5,1.6v3.7h-1.4v-6.9h1.4v1.4c0.2-0.5,0.5-0.9,0.9-1.2c0.4-0.3,0.9-0.4,1.4-0.4
					c0.6,0,1.1,0.1,1.5,0.4c0.4,0.3,0.7,0.7,0.9,1.2c0.2-0.5,0.5-0.9,1-1.2c0.4-0.3,0.9-0.4,1.5-0.4
					C95.3,137.5,95.9,137.7,96.4,138.2z"/>
				<path fill="#6C8585" d="M100.2,135.2v9.3h-1.4v-9.3H100.2z"/>
			</g>
		</g>
		<g>
			<g>
				<path opacity="0.6" fill="#B4C7E0" d="M80.1,190.2H51.7c-3.3,0-6-2.7-6-6v-13c0-3.3,2.7-6,6-6h28.4c3.3,0,6,2.7,6,6v13
					C86.2,187.5,83.5,190.2,80.1,190.2z"/>
				<path fill="#F8ECED" d="M81.4,187.8H53c-3.3,0-6-2.7-6-6v-13c0-3.3,2.7-6,6-6h28.4c3.3,0,6,2.7,6,6v13
					C87.4,185.1,84.7,187.8,81.4,187.8z"/>
			</g>
			<g>
				<path fill="#6F5E68" d="M56.7,174.9c0.6,0,1.1-0.3,1-1.2l-0.2-2.4c-0.1-2,1.1-2.6,3.1-2.6c0.3,0,0.6,0.3,0.6,0.7
					c0,0.3-0.2,0.7-0.5,0.7c-1,0-1.2,0.3-1.2,1.2l0.1,2.3c0,1.3-0.3,1.8-1.4,2.1v0.1c1,0.2,1.5,0.8,1.4,2l-0.1,2.4
					c0,0.9,0.5,1.2,1.2,1.2c0.3,0,0.4,0.4,0.4,0.7c0,0.3-0.2,0.7-0.6,0.7c-2,0-3.2-0.6-3-2.5l0.2-2.5c0.1-0.8-0.4-1.1-1-1.1
					c-0.4,0-0.6-0.5-0.6-0.8C56.1,175.3,56.3,174.9,56.7,174.9z"/>
				<path fill="#6F5E68" d="M62.9,177.8h0.4c0.7,0,1.3,0.6,1.3,1.3c0,0.7-0.6,1.3-1.3,1.3h-0.4c-0.7,0-1.3-0.6-1.3-1.3
					C61.7,178.3,62.2,177.8,62.9,177.8z"/>
				<path fill="#6F5E68" d="M67.4,177.8h0.4c0.7,0,1.3,0.6,1.3,1.3c0,0.7-0.6,1.3-1.3,1.3h-0.4c-0.7,0-1.3-0.6-1.3-1.3
					C66.1,178.3,66.7,177.8,67.4,177.8z"/>
				<path fill="#6F5E68" d="M71.8,177.8h0.4c0.7,0,1.3,0.6,1.3,1.3c0,0.7-0.6,1.3-1.3,1.3h-0.4c-0.7,0-1.3-0.6-1.3-1.3
					C70.6,178.3,71.1,177.8,71.8,177.8z"/>
				<path fill="#6F5E68" d="M78.5,176.6c-0.6,0-1.1,0.3-1,1.1l0.2,2.5c0.1,2-1,2.5-3,2.5c-0.4,0-0.6-0.3-0.6-0.7
					c0-0.3,0.1-0.7,0.4-0.7c0.7,0,1.2-0.3,1.2-1.2l-0.1-2.4c-0.1-1.2,0.4-1.8,1.4-2v-0.1c-1-0.3-1.4-0.8-1.4-2.1l0.1-2.3
					c0-0.9-0.2-1.2-1.2-1.2c-0.3,0-0.5-0.4-0.5-0.7c0-0.3,0.2-0.7,0.6-0.7c2,0,3.2,0.5,3.1,2.6l-0.2,2.4c-0.1,0.9,0.4,1.2,1,1.2
					c0.4,0,0.6,0.4,0.6,0.8C79.1,176.1,78.8,176.6,78.5,176.6z"/>
			</g>
		</g>
		<g>
			<rect x="279.4" y="77.2" opacity="0.6" fill="#7B95BA" width="170.9" height="85.4"/>
			<rect x="283.4" y="73.2" fill="#363039" stroke="#F8ECED" stroke-miterlimit="10" width="170.9" height="85.4"/>
			<rect x="283.4" y="73.2" fill="#F8ECED" width="170.9" height="12"/>
			<g>
				<rect x="286.6" y="77.2" fill="#363039" width="6.9" height="4"/>
				
					<line fill="none" stroke="#363039" stroke-linecap="round" stroke-linejoin="round" stroke-miterlimit="10" x1="298.9" y1="79.2" x2="345.7" y2="79.2"/>
			</g>
			<g>
				
					<line fill="none" stroke="#F8ECED" stroke-linecap="round" stroke-linejoin="round" stroke-miterlimit="10" x1="293.1" y1="97.3" x2="377.6" y2="97.3"/>
				
					<line fill="none" stroke="#F8ECED" stroke-linecap="round" stroke-linejoin="round" stroke-miterlimit="10" x1="293.1" y1="107.8" x2="423.2" y2="107.8"/>
				
					<line fill="none" stroke="#F8ECED" stroke-linecap="round" stroke-linejoin="round" stroke-miterlimit="10" x1="350.9" y1="113.6" x2="402.5" y2="113.6"/>
				
					<line fill="none" stroke="#F8ECED" stroke-linecap="round" stroke-linejoin="round" stroke-miterlimit="10" x1="293.1" y1="113.6" x2="344.6" y2="113.6"/>
				
					<line fill="none" stroke="#F8ECED" stroke-linecap="round" stroke-linejoin="round" stroke-miterlimit="10" x1="307.6" y1="143.8" x2="413.3" y2="143.8"/>
				
					<line fill="none" stroke="#F8ECED" stroke-linecap="round" stroke-linejoin="round" stroke-miterlimit="10" x1="350.9" y1="119.4" x2="402.5" y2="119.4"/>
				
					<line fill="none" stroke="#F8ECED" stroke-linecap="round" stroke-linejoin="round" stroke-miterlimit="10" x1="293.1" y1="119.4" x2="344.6" y2="119.4"/>
				
					<line fill="none" stroke="#F8ECED" stroke-linecap="round" stroke-linejoin="round" stroke-miterlimit="10" x1="350.9" y1="125.2" x2="402.5" y2="125.2"/>
				
					<line fill="none" stroke="#F8ECED" stroke-linecap="round" stroke-linejoin="round" stroke-miterlimit="10" x1="293.1" y1="125.2" x2="344.6" y2="125.2"/>
				
					<line fill="none" stroke="#F8ECED" stroke-linecap="round" stroke-linejoin="round" stroke-miterlimit="10" x1="293.1" y1="135.8" x2="355" y2="135.8"/>
			</g>
		</g>
		<g>
			<path opacity="0.6" fill="#B4C7E0" d="M217.5,206.4h-82.7c-4.1,0-7.4-3.3-7.4-7.4V97.5c0-4.1,3.3-7.4,7.4-7.4h82.7
				c4.1,0,7.4,3.3,7.4,7.4V199C224.9,203.1,221.6,206.4,217.5,206.4z"/>
			<path fill="#FFFFFF" d="M220.5,203.4h-82.7c-4.1,0-7.4-3.3-7.4-7.4V94.5c0-4.1,3.3-7.4,7.4-7.4h82.7c4.1,0,7.4,3.3,7.4,7.4V196
				C227.9,200.1,224.6,203.4,220.5,203.4z"/>
			<path fill="#FFFFFF" d="M222.4,213.1c-2.6-0.3-7.1-3.5-4.8-10.9l-13.8,0.8c3.4,6.3,7,9.9,18,10.9
				C222.2,214,223.1,213.6,222.4,213.1z"/>
			<g>
				
					<polyline fill="none" stroke="#DD6A5B" stroke-width="1.5" stroke-linecap="round" stroke-linejoin="round" stroke-miterlimit="10" points="
					142.8,97.6 137.5,100.7 142.8,103.8 				"/>
				
					<polyline fill="none" stroke="#DD6A5B" stroke-width="1.5" stroke-linecap="round" stroke-linejoin="round" stroke-miterlimit="10" points="
					157.6,97.6 163,100.7 157.6,103.8 				"/>
				
					<line fill="none" stroke="#DD6A5B" stroke-width="1.5" stroke-linecap="round" stroke-linejoin="round" stroke-miterlimit="10" x1="148.7" y1="95.6" x2="145.8" y2="104.6"/>
				
					<polyline fill="none" stroke="#DD6A5B" stroke-width="1.5" stroke-linecap="round" stroke-linejoin="round" stroke-miterlimit="10" points="
					142.8,150.1 137.5,153.1 142.8,156.2 				"/>
				
					<polyline fill="none" stroke="#DD6A5B" stroke-width="1.5" stroke-linecap="round" stroke-linejoin="round" stroke-miterlimit="10" points="
					198.4,161.1 203.7,164.1 198.4,167.2 				"/>
				
					<line fill="none" stroke="#DD6A5B" stroke-width="1.5" stroke-linecap="round" stroke-linejoin="round" stroke-miterlimit="10" x1="193.1" y1="158.2" x2="190.2" y2="167.2"/>
				
					<line fill="none" stroke="#6C8585" stroke-width="2" stroke-linecap="round" stroke-linejoin="round" stroke-miterlimit="10" x1="152.6" y1="114.9" x2="204.9" y2="114.9"/>
				
					<line fill="none" stroke="#6C8585" stroke-width="2" stroke-linecap="round" stroke-linejoin="round" stroke-miterlimit="10" x1="152.6" y1="130.7" x2="212" y2="130.7"/>
				
					<line fill="none" stroke="#6F5E68" stroke-width="2" stroke-linecap="round" stroke-linejoin="round" stroke-miterlimit="10" x1="145.4" y1="153.1" x2="204.8" y2="153.1"/>
				
					<line fill="none" stroke="#DD6A5B" stroke-width="2" stroke-linecap="round" stroke-linejoin="round" stroke-miterlimit="10" x1="152.2" y1="123.2" x2="176.1" y2="123.2"/>
				
					<line fill="none" stroke="#6C8585" stroke-width="2" stroke-linecap="round" stroke-linejoin="round" stroke-miterlimit="10" x1="182.9" y1="123.2" x2="214.4" y2="123.2"/>
				
					<line fill="none" stroke="#6C8585" stroke-width="2" stroke-linecap="round" stroke-linejoin="round" stroke-miterlimit="10" x1="151.8" y1="182.2" x2="175.7" y2="182.2"/>
				
					<line fill="none" stroke="#6F5E68" stroke-width="2" stroke-linecap="round" stroke-linejoin="round" stroke-miterlimit="10" x1="182.5" y1="182.2" x2="214" y2="182.2"/>
				
					<line fill="none" stroke="#6F5E68" stroke-width="2" stroke-linecap="round" stroke-linejoin="round" stroke-miterlimit="10" x1="146.5" y1="162.7" x2="183.4" y2="162.7"/>
			</g>
		</g>
	</g>
	<g>
		<g>
			<g>
				<path fill="#6C8585" d="M115.8,390c5.7-6.9,14.6-23.8,19.7-31c3.4-4.7,6.5-10.4,7.9-20.4c0.4-2.7-1.2-6.4-1.8-7.5
					c-0.6-1.2-2.2-2-3.6-1.5c-1.2-1.2,0.1-3.1,1.5-4.3c3.7-3.3,7.4-6.5,11-9.8c3.1-2.8,6.5-6.7,4.4-10.1c-1.4-2.3-4.9-3.3-6.1-5.7
					c-1.3-2.5,0.4-5.4,1.9-7.9c6.8-11.6,8.2-25.6,3.8-38c-0.6-1.7-1.9-3.8-4-3.7c-1.3,0-2.3,0.9-3.2,1.8c-10.4,10-19.5,21-26.9,32.8
					c-0.2,0.2-0.3,0.5-0.6,0.7c-1,0.6-2.1-0.3-3.2-0.8c-2.2-0.9-4.8,0.5-5.8,2.5c-0.9,1.9-0.6,4.1-0.3,6.1c0.5,3,0.9,6.1,1.4,9.1
					c0.5,3.3,0.3,7.7-3.4,8.7c-2.1,0.6-4.7-0.3-6.6,0.7c-1.7,1-2,3-2,4.8C99.6,335.3,104.6,373.8,115.8,390"/>
			</g>
			
				<path fill="none" stroke="#7A9696" stroke-width="1.574" stroke-linecap="round" stroke-linejoin="round" stroke-miterlimit="10" d="
				M116.1,417.4c-1.9-43.5,3.1-94.8,20.6-136.6"/>
		</g>
		<g>
			<g>
				<path fill="#7A9696" d="M104.6,387.1c-5.3-21.5-16.8-41.4-27.1-58.8c-5.7-9.7-8.5-26-8.6-36.8c0-1.4,0.1-2.9,0.7-4.2
					c0.6-1.2,1.5-2.2,2.1-3.3c2.6-4.8-0.5-10.4-3.1-15.2c-7.5-13.6-11.9-28.4-13.1-43.4c-0.7-8.8-0.1-18.1,5-25.7
					c0.8-1.3,2-2.6,3.6-2.8c1.7-0.3,3.4,0.7,4.8,1.7c2.7,1.9,5.2,4,7.6,6.1c18.1,16.3,30.2,37.4,34.3,59.7c1.2,6.5,1.7,13.1,2,19.8
					c0.7,14.3,0.5,28.6,0.3,42.9c-0.2,13.6-0.9,48-8,60.1"/>
			</g>
			
				<path fill="none" stroke="#6C8585" stroke-width="1.574" stroke-linecap="round" stroke-linejoin="round" stroke-miterlimit="10" d="
				M104.6,415.9c0,0,6.9-125.4-25.4-188.5"/>
		</g>
		<g>
			<path fill="#DD6A5B" d="M125.9,408.9H94.8c-1.4,0-2.6-1.2-2.6-2.6v-2.9c0-1.4,1.2-2.6,2.6-2.6h31.1c1.4,0,2.6,1.2,2.6,2.6v2.9
				C128.5,407.8,127.4,408.9,125.9,408.9z"/>
			<path fill="#DD6A5B" d="M115.2,433h-9.6c-4.5,0-9.1-3.4-9.4-7.9l-2.2-22h32.6l-2.5,21.9C123.9,429.5,119.7,433,115.2,433z"/>
		</g>
		<g>
			<path fill="#363039" d="M94.3,408.7c10.5,0,21.1,0.2,31.6,0.2l-0.4,4.6l-23.4-4.7"/>
		</g>
	</g>
	<g>
		<line fill="none" stroke="#363039" stroke-width="1.7333" stroke-miterlimit="10" x1="246.2" y1="344.3" x2="234.3" y2="434.6"/>
		<line fill="none" stroke="#363039" stroke-width="1.7333" stroke-miterlimit="10" x1="324.8" y1="344.3" x2="337" y2="434.6"/>
		<path fill="#B4C7E0" d="M322.4,234h-70.7c-4.7,0-8.5,4.7-8.5,10.4c0,0,7,62.9,5,74.9c-2,12-9.5,15.3-8.6,22.3
			c0.9,7.1,95.5,5.1,95.5-1.5s-8.7-9.9-10.8-20.8c-2-10.9,6.6-74.9,6.6-74.9C330.9,238.7,327.1,234,322.4,234z"/>
		<path fill="#7B95BA" d="M332.3,346.3h-90.2c-1.5,0-2.8-1.2-2.8-2.8v-3.3c0-1.5,1.2-2.8,2.8-2.8h90.2c1.5,0,2.8,1.2,2.8,2.8v3.3
			C335.1,345.1,333.8,346.3,332.3,346.3z"/>
	</g>
	<g>
		<g>
			<path fill="#F5DEBF" d="M266.1,157.4c-1.5,7.4-3,13.9-5.6,20.4c-0.9,2.3-1.4,4.5-3.2,6.2c-1.8,1.7-3.3,3.8-3.5,6.3
				c-0.1,1.9,0.6,3.7,0.9,5.6c0.6,3.5-0.6,7.5-3.6,9.5c-1,0.7-2.1,1.1-3.2,1.7c-2.7,1.5-4.8,3.9-5.8,6.8c-0.6,1.6-0.7,3.6,0.4,4.9
				c0.4,0.5,0.9,0.9,1.2,1.4c1,1.6,0.1,3.7,0.7,5.5c0.6,1.9,2.8,2.9,4.8,2.9c2,0,3.9-0.8,5.8-1.3c4.2-1.1,8.6-1.2,12.8-0.2
				c3,0.7,5.8,2,8.8,2.7c4.1,0.9,8.6,0.6,12.5-1.1c3.9-1.8,7.1-5.1,8.4-9.1c1.4-4.2,1-9.3,4.2-12.3c1.3-1.2,3-1.9,4.5-2.8
				c5.4-3.4,7.6-9.9,9.5-16c0.5-1.8,1.1-3.6,0.9-5.4c-0.3-3.8-3.5-7.1-3-10.8c0.2-1.3,0.7-2.5,1-3.7c1-4.2-1.5-8.5-4-12
				c-1.3-1.8-2.6-3.6-4.3-5c-3-2.6-6.9-3.9-10.9-4.3c-8-0.7-16.3,2.5-21.7,8.4c-2.2,2.4-4,5.3-4.7,8.4"/>
		</g>
		<g>
			<path fill="#441816" d="M291.7,202.1c-4.1,0-8.2,0-12.2,0.6c-4,0.7-8,2-11.2,4.5c-0.4,0.3-0.7,0.6-0.9,1
				c-0.3,0.5-0.4,1.1-0.4,1.6c0,2.5,1.6,4.7,3.4,6.4c4.5,4.3,10.4,6.5,16.3,8.7c1,0.4,2,0.7,3,0.4c0.7-0.2,1.2-0.6,1.7-1
				c5.2-4.2,10.2-6.2,14.6-11.2c0.9-1.1,1.8-5,1.6-6.4c-0.2-1.1-1-1.9-1.9-2.5c-2.8-1.9-6.3-2.4-9.7-2.5c-3.7-0.2-7.4,0-11,0.5"/>
		</g>
		<g>
			<g>
				
					<path fill="none" stroke="#FEA589" stroke-width="15.0329" stroke-linecap="round" stroke-linejoin="round" stroke-miterlimit="10" d="
					M298.8,320.4c28.5,7.7,24.5,72.7,12.8,104.4"/>
				<g>
					<path fill="#363039" d="M319.6,423l-13.7-2.4c-0.8-0.1-1.7,0.4-2,1.1c-2.2,4.9-3.4,8.9-2.4,10.5c0.6,0.9,0.8,0.8,1.9,1.7
						c0,0,21.1,12.2,24.9,8.2C332.1,438,319.6,423,319.6,423z"/>
					<path fill="#F5DEBF" d="M316,440.2c5.3,2.2,10.6,3.8,12.3,1.9c1.6-1.7,0.3-5.4-1.7-9C322.4,430.8,319.1,433.3,316,440.2z"/>
					<path fill="#F5DEBF" d="M308.9,428.1c-0.4,1.2-1.6,1.9-2.6,1.7c-1.1-0.2-1.7-1.4-1.3-2.5c0.4-1.2,1.6-1.9,2.6-1.7
						C308.6,425.8,309.2,426.9,308.9,428.1z"/>
					<g>
						<g>
							<path fill="#F5DEBF" d="M302.3,430.1c4,3.2,8.3,5.9,12.9,8.1c0.2,0.1,0.3-0.2,0.1-0.2c-4.6-2.1-8.9-4.8-12.9-8
								C302.4,429.8,302.2,430,302.3,430.1L302.3,430.1z"/>
						</g>
					</g>
				</g>
			</g>
			<g>
				
					<path fill="none" stroke="#FEA589" stroke-width="15.0329" stroke-linecap="round" stroke-linejoin="round" stroke-miterlimit="10" d="
					M269,320.4c-20.3,23.6-15.9,67-7.2,105.5"/>
				<g>
					<path fill="#363039" d="M253.8,422.5l14-2.1c0.8-0.1,1.7,0.4,2,1.1c2.3,4.9,3.3,8.5,2.7,10.2c-0.3,1-0.8,1.3-1.8,2.1
						c0,0-22.2,11.4-26.1,7.4C240.7,437.2,253.8,422.5,253.8,422.5z"/>
					<path fill="#F5DEBF" d="M246.9,431.7c-2.4,3.8-4,7.7-2.2,9.5c2,2.1,9,0,15.2-2.5C256,432.5,251.7,429.4,246.9,431.7z"/>
					<path fill="#F5DEBF" d="M268.1,427.3c0.6,1.1,0.2,2.3-0.8,2.7c-1,0.4-2.4-0.2-2.9-1.3s-0.2-2.3,0.8-2.7
						C266.2,425.6,267.5,426.2,268.1,427.3z"/>
					<g>
						<g>
							<path fill="#F5DEBF" d="M259.6,436.1c2.2-0.6,4.2-1.6,6.2-2.6c1.8-0.9,4-1.6,5.3-3.2c0.1-0.1-0.1-0.3-0.2-0.2
								c-1.2,1.6-3.5,2.3-5.2,3.1c-2,1-4,2-6.2,2.6C259.4,435.9,259.5,436.2,259.6,436.1L259.6,436.1z"/>
						</g>
					</g>
				</g>
			</g>
		</g>
		<g>
			<path fill="#FEA589" d="M287.7,220.7L287.7,220.7c-4.2,0-7.6-3.4-7.6-7.6v-16.4c0-4.2,3.4-7.6,7.6-7.6l0,0c4.2,0,7.6,3.4,7.6,7.6
				v16.4C295.3,217.2,291.9,220.7,287.7,220.7z"/>
			<path fill="#363039" d="M280.1,192.6h15.2V209c0,0-4.8,1.6-15.2-5.7V192.6z"/>
		</g>
		<path fill="#FEA589" d="M321.5,239.9c1.3-19-12.5-26.8-32.2-26.8H288h-0.6h-1.3c-19.7,0-34.5,8.5-33.2,27.5
			c0.8,11.3,7.7,15.4,12.1,32.6c2.8,11-3.4,25.1-3.6,32.2c-0.4,10.8,5,22.8,24.8,22.8h1.3h0.6h1.3c19.7,0,25.1-12,24.8-22.8
			c-0.2-7-6.4-21.2-3.6-32.2C315,256,320.8,251.2,321.5,239.9z"/>
		<g>
			<g>
				<path fill="#363039" d="M260.6,298.7c-1.7,4.6-0.2,9.7-0.5,14.6c-0.5,6-3.9,11.3-6.2,16.9c-1.8,4.4-2.9,9.1-4,13.7
					c-2.1,8.7-4.1,17.4-3.9,26.3c0.1,3.9,0.9,18.4,1.4,22.2c1.3,11,2.2,11.4,3.5,22.4c0.1,0.5,0.2,1.1,0.5,1.5
					c0.6,0.5,1.4,0.4,2.2,0.2c4.9-1,9.8-2.1,14.7-3.1c0.9-1.1-7.3-43.1,0.9-68.4c0.3-1,4.1-12.3,4.8-13.1c1.6-1.9,4.3-2.1,6.8-2.2
					c7.7-0.2,16.4-0.1,21.9,5.3c4.1,4,7.1,18.1,8,23.8c3,20.6-6.5,50.7-4.7,53.2c5.3,1.4,11,3,16.5,3.3c0.6,0,1.2,0.1,1.7-0.3
					c0.4-0.3,0.6-0.8,0.8-1.3c4-12.7,4.5-26.2,4.8-39.5c0.2-8.2,0.5-16.5-1.2-24.5c-2.2-10.5-7.6-20.1-13.2-29.3
					c-0.7-1.1-1.4-2.3-1.6-3.6c-0.3-1.5,0.1-3,0.5-4.5c0.9-3.7,0.4-8.8,1.1-12.5c0.1-0.3-1.9-1.2-2.1-1.5c-0.2-0.2-2.4-1.3-2.6-1.4
					c-1.7-0.1-6.6,0.3-8.3,0.1c-8.5-0.6-8.7,1.1-17.1,0.5c-6.4-0.5-12.9-1-19.2,0.3c-1.8,0.4-3.5,0.9-5.2,1.5"/>
			</g>
			<path fill="#363039" d="M248.5,413.2l1.2,4.9c0.1,0.4,0.5,0.6,0.9,0.5l18.9-4c0.4-0.1,0.6-0.4,0.6-0.8l-0.9-5.7
				c-0.1-0.4-0.5-0.7-0.9-0.6l-19.3,4.8C248.6,412.5,248.4,412.8,248.5,413.2z"/>
			<path fill="#363039" d="M304.7,407.1l-0.7,5.3c0,0.4,0.2,0.7,0.5,0.7l20,3.6c0.3,0.1,0.6-0.1,0.7-0.4l1.6-4.9
				c0.1-0.4-0.1-0.8-0.5-0.9l-20.8-4C305.1,406.5,304.7,406.7,304.7,407.1z"/>
			<g>
				<g>
					<g>
						<path fill="#6F5E68" d="M285.1,305.9c0,2.9,0,5.8,0,8.6c0,0.5-0.1,1.3,0,1.8c0.1,0.4,0.6,0.5,1,0.7c1.3,0.6,2.7,1.1,4,1.7
							c0.2,0.1,0.3-0.2,0.1-0.2c-1.2-0.5-2.4-1-3.5-1.5c-0.3-0.1-0.6-0.2-0.9-0.4c-0.4-0.3-0.4-0.6-0.4-1c0-0.6,0-1.2,0-1.8
							c0-2.6,0-5.2,0-7.8C285.4,305.7,285.1,305.7,285.1,305.9L285.1,305.9z"/>
					</g>
				</g>
				<g>
					<g>
						<path fill="#6F5E68" d="M290.5,318.7c-0.2-2.3-0.4-4.6-0.6-6.9c-0.2-2.2-0.3-4.4-0.7-6.6c0-0.2-0.3-0.1-0.3,0.1
							c0.5,2.2,0.5,4.5,0.7,6.8c0.2,2.2,0.4,4.4,0.6,6.6C290.2,318.9,290.5,318.9,290.5,318.7L290.5,318.7z"/>
					</g>
				</g>
				<g>
					<g>
						<path fill="#6F5E68" d="M261.9,308.9c2.9,0.7,5.8,1.4,8.8,2c1.4,0.3,2.9,0.6,4.3,0.9c0.8,0.1,1.5,0.3,2.3,0.4
							c0.5,0.1,0.5,0.2,0.5,0.7c0,0.4,0,0.8-0.1,1.2c0,0.2,0.3,0.2,0.3,0c0-0.6,0.1-1.3,0.1-1.9c0-0.1,0-0.1-0.1-0.1
							c-5.3-1-10.7-2.2-15.9-3.5C261.8,308.6,261.7,308.8,261.9,308.9L261.9,308.9z"/>
					</g>
				</g>
				<g>
					<g>
						<path fill="#6F5E68" d="M300.2,311.8c4.3-1,8.7-1.9,13.1-2.6c0.2,0,0.1-0.3-0.1-0.3c-4.4,0.8-8.7,1.6-13.1,2.6
							C299.9,311.6,300,311.9,300.2,311.8L300.2,311.8z"/>
					</g>
				</g>
				<g>
					<g>
						<path fill="#6F5E68" d="M250.5,412.1c4.9-1.1,9.7-2.1,14.6-3.1c0.2,0,0.1-0.3-0.1-0.3c-4.9,1-9.7,2.1-14.6,3.1
							C250.3,411.9,250.4,412.2,250.5,412.1L250.5,412.1z"/>
					</g>
				</g>
				<g>
					<g>
						<path fill="#6F5E68" d="M309.6,407.5c5.3,0.7,10.6,1.7,15.8,2.9c0.2,0,0.3-0.2,0.1-0.3c-5.2-1.2-10.5-2.2-15.8-2.9
							C309.4,407.2,309.4,407.5,309.6,407.5L309.6,407.5z"/>
					</g>
				</g>
				<g>
					<g>
						<path fill="#6F5E68" d="M271,334.9c-3.6,7.6-6.9,15.3-9.9,23.1c-0.9,2.3-1.7,4.5-2.5,6.8c-0.1,0.2,0.2,0.2,0.3,0.1
							c2.8-7.9,5.9-15.7,9.4-23.4c1-2.2,2-4.3,3-6.5C271.3,334.9,271,334.7,271,334.9L271,334.9z"/>
					</g>
				</g>
			</g>
		</g>
		<g>
			<path fill="#441816" d="M322.3,236.1c-0.2-2.8-0.3-5.6-1.1-8.3c-1.5-5.2-5.3-9.7-10-12.4c-4.7-2.7-10.3-3.8-15.7-3.5l0,1
				c-0.9,2.3-1.6,4.7-3.1,6.6c-1.5,1.9-4.2,3.3-6.4,2.3c-1.2-0.5-2-1.6-2.8-2.7c-1.4-1.9-2.7-3.8-3.9-5.8l0.5-0.1
				c-2.9-1.2-6.1-0.2-9.1,0.9c-2.7,1-5.4,2.1-8.1,3.3c-2.3,1-4.6,2-6.5,3.7c-2.9,2.6-4.3,6.3-5.3,10c-1,3.6-1.5,7.2-1.8,10.9
				c-0.4,6.9,0.4,13.7,0.7,20.6c0.3,7.4-0.1,14.7,0.1,22.1c0.1,2.4,0.2,4.9,1.1,7.1c1.3,3.5,4.3,6.1,7.3,8.3
				c0.4,0.3,0.7,0.5,1.1,0.8c-0.1,1.2-0.2,2.7,0.3,3.7c0,0,18.9,6,54.9,0c0,0,0.6-1.1,0.5-3.6c2.1-1.7,3.3-4.8,4-7.6
				C323.9,274.9,323.3,255.3,322.3,236.1z"/>
		</g>
		
			<path fill="none" stroke="#FEA589" stroke-width="12.0535" stroke-linecap="round" stroke-linejoin="round" stroke-miterlimit="10" d="
			M311.6,228.2c0,0,59.4,36.6,8.3,46.4"/>
		
			<path fill="none" stroke="#FEA589" stroke-width="12.0535" stroke-linecap="round" stroke-linejoin="round" stroke-miterlimit="10" d="
			M261.8,228.2c0,0-65.7,35.7-6.5,46.3"/>
		<g>
			<path fill="#441816" d="M261.9,218c-5,1.6-9.4,4.4-13.6,7.6c-4.8,3.7-9.3,7.8-13.8,12.1c-4.5,4.3-9,8.9-11.8,14.5
				c-2.8,5.6-3.7,12.5-0.8,18.1c2.8,5.4,8.7,8.7,14.8,9.8c6,1.1,12.2,0.4,18.3-0.4c0.5-0.1,1.1-0.2,1.5-0.5c0.3-0.3,0.4-0.8,0.4-1.2
				c0.5-3,0.8-6.1,0.9-9.1c-3.1-1.2-6.1-2.4-9.2-3.6c-2.9-1.1-6.2-2.7-6.8-5.7c-0.7-3.3,2.1-6.3,4.7-8.4c4.5-3.6,9.2-7,14.1-10.1
				c4-2.5,8.4-5.1,10.1-9.5c1.2-3.2,0.8-7-1.2-9.8C267.5,218.9,265.3,217.9,261.9,218"/>
		</g>
		<g>
			<path fill="#441816" d="M308.7,218.9c-4.1,0.6-6.8,5-6.7,9.1c0.1,4.1,2.6,7.8,5.6,10.6c3,2.8,6.7,4.8,10.1,7
				c3.7,2.5,7.2,5.3,10.4,8.4c1.4,1.3,2.8,3.1,2.2,4.9c-0.4,1.2-1.6,1.9-2.6,2.6c-2.8,1.8-5.5,3.7-8.1,5.9c-0.6,0.5-1.2,1.1-1.5,1.8
				c-0.2,0.7-0.2,1.4-0.1,2.1c0.2,2.4,0.5,4.7,0.7,7.1c0,0.4,0.1,0.8,0.4,1c0.3,0.2,0.7,0.2,1.1,0.2c7.8-0.4,13.1-1,20.4-3.9
				c2.7-1.1,5.4-2.6,7.1-5.1c1-1.5,1.5-3.2,1.8-4.9c2-10.2-5.1-22-12.6-29.2c-7.5-7.2-7.1-5.4-15.1-12.1c-3.6-3-4.8-5-7.4-6.6
				C312.8,216.6,309.2,216.9,308.7,218.9"/>
		</g>
		<g>
			<g>
				<path fill="#FEA589" d="M312.6,185.6c0.6,3.2-1.4,6.2-4.5,6.8c-3.1,0.6-6-1.5-6.6-4.7c-0.6-3.2,1.4-6.2,4.5-6.8
					C309,180.3,312,182.4,312.6,185.6z"/>
				<path fill="#FEA589" d="M274.9,185.6c0.6,3.2-1.4,6.2-4.5,6.8c-3.1,0.6-6-1.5-6.6-4.7c-0.6-3.2,1.4-6.2,4.5-6.8
					C271.4,180.3,274.3,182.4,274.9,185.6z"/>
				<path fill="#FEA589" d="M291.2,200.3l-5.4,0.1c-9.6,0.2-17.7-8.4-17.9-18.3l-0.5-20.8c-0.2-9.8,7.4-18.1,17-18.3l5.4-0.1
					c9.6-0.2,17.6,7.7,17.9,17.6l0.5,20.8C308.5,191.2,300.8,200.1,291.2,200.3z"/>
				<g>
					<g>
						<path fill="#363039" d="M265.9,185.4c1.5,1.2,2.5,2.8,2.8,4.8c0.1,0.3,0.6,0.3,0.6,0C269.6,188,268.2,185.7,265.9,185.4
							C265.9,185.3,265.8,185.4,265.9,185.4L265.9,185.4z"/>
					</g>
				</g>
				<g>
					<g>
						<path fill="#363039" d="M309.7,185.4c-2.2,0.3-3.7,2.7-3.4,4.8c0,0.3,0.6,0.3,0.6,0C307.3,188.2,308.3,186.7,309.7,185.4
							C309.8,185.4,309.8,185.3,309.7,185.4L309.7,185.4z"/>
					</g>
				</g>
			</g>
			<g>
				<path fill="#363039" d="M294.7,179.4c0,1,0.8,1.8,1.7,1.8c0.9,0,1.7-0.8,1.7-1.8c0-1-0.8-1.8-1.7-1.8
					C295.5,177.6,294.7,178.4,294.7,179.4z"/>
				<path fill="#363039" d="M278.3,179.4c0,1,0.8,1.8,1.7,1.8c0.9,0,1.7-0.8,1.7-1.8c0-1-0.8-1.8-1.7-1.8
					C279,177.6,278.3,178.4,278.3,179.4z"/>
				
					<path fill="none" stroke="#363039" stroke-width="0.7203" stroke-linecap="round" stroke-linejoin="round" stroke-miterlimit="10" d="
					M284.6,187.4c1.2,2.2,2.1,2.1,3,2.2c0.8,0.1,1.9,0,2.7-2.2"/>
				<g>
					<circle fill="none" stroke="#DD6A5B" stroke-width="1.1445" stroke-miterlimit="10" cx="298.1" cy="179" r="7.9"/>
					<circle fill="none" stroke="#DD6A5B" stroke-width="1.1445" stroke-miterlimit="10" cx="278.3" cy="179.4" r="7.9"/>
				</g>
				
					<path fill="none" stroke="#363039" stroke-width="1.6334" stroke-linecap="round" stroke-linejoin="round" stroke-miterlimit="10" d="
					M276.8,169.1c0,0,1.1-0.4,2.4-0.5c1.3-0.1,2.5,0.2,2.5,0.2"/>
				
					<path fill="none" stroke="#363039" stroke-width="1.6334" stroke-linecap="round" stroke-linejoin="round" stroke-miterlimit="10" d="
					M294,169c0,0,1.1-0.4,2.4-0.3c1.3,0,2.5,0.5,2.5,0.5"/>
				
					<path fill="none" stroke="#363039" stroke-width="0.7203" stroke-linecap="round" stroke-linejoin="round" stroke-miterlimit="10" d="
					M287,174.6c-0.8,6.1-0.6,9.2,1.6,8.9"/>
			</g>
		</g>
		<g>
			<path fill="#F5DEBF" d="M309.8,181.2c0.7-7.1,1-15.5-1-22.4c-1.9-6.9-6.6-13.4-13.3-15.8c-4.5-1.6-9.5-1.1-14.2-0.2
				c-1.6,0.3-3.2,0.7-4.6,1.5c-1.1,0.6-2,1.3-2.9,2.1c-2,1.7-4,3.5-5.5,5.7c-2.7,4.2-3.1,9.5-3,14.5c0.1,4.9,0.6,9.8,2.1,14.3
				l0.2,0.2c0.4,0.2,0.9,0,1.1-0.4c0.2-0.4,0.3-0.8,0.3-1.3c0.1-4.6-0.3-9.3,1.2-13.7c0.8-2.2,2-4.2,3.2-6.1
				c0.7-1.2,1.5-2.4,2.5-3.4c1.7-1.7,4.1-2.7,6.5-2.7c1.6,0,3.3,0.5,4.1,1.8c0.4,0.7,0.5,1.5,0.9,2.2c0.8,1.5,2.8,2.1,4.5,2.1
				c1.8,0,3.5-0.4,5.3-0.2c1.9,0.2,3.7,1.1,4.9,2.6c2.3,2.6,2.6,6.2,3,9.6c0.4,3.4,0.1,7.4,3,9.1"/>
		</g>
		<g>
			<g>
				<g>
					<path fill="#FFFFFF" d="M257.1,198.6c0.7,4.5-3.5,7.6-6.7,9.9c-2.8,2-6,4.6-6.1,8.4c0,0.2,0.3,0.2,0.3,0c0.2-4.4,4.4-7,7.5-9.3
						c2.9-2.1,5.9-5.2,5.2-9.1C257.4,198.3,257.1,198.4,257.1,198.6L257.1,198.6z"/>
				</g>
			</g>
			<g>
				<g>
					<path fill="#FFFFFF" d="M255.4,209.6c2.2-2.4,4.5-5.2,4.9-8.6c0.5-3.6-1.9-6.4-2.4-9.8c-0.3-1.8,0-3.9,1.6-5
						c0.1-0.1,0-0.4-0.1-0.2c-2.4,1.8-2,5.3-1.1,7.8c0.7,1.7,1.5,3.5,1.8,5.3c0.2,1.9-0.3,3.7-1.1,5.4c-1,1.8-2.3,3.5-3.7,5
						C255.1,209.5,255.3,209.7,255.4,209.6L255.4,209.6z"/>
				</g>
			</g>
			<g>
				<g>
					<path fill="#FFFFFF" d="M288.9,153.3c0.3,1.9,2.1,2.9,3.8,3.3c1.2,0.3,2.5,0.4,3.8,0.5c1.1,0.1,2.2,0.1,3.3,0.5
						c2,0.8,3.7,2.3,4.9,4c1.3,1.8,1.9,3.8,2.3,6c0.4,2.6,0.6,5.2,0.9,7.8c0,0.2,0.3,0.1,0.3-0.1c-0.6-4.3-0.4-9-2.6-12.8
						c-1-1.7-2.3-3.2-3.9-4.2c-0.8-0.5-1.6-0.9-2.5-1.1c-1-0.3-2.1-0.2-3.1-0.3c-2.4-0.2-6.3-0.6-6.8-3.6
						C289.1,153,288.8,153.1,288.9,153.3L288.9,153.3z"/>
				</g>
			</g>
			<g>
				<g>
					<path fill="#FFFFFF" d="M309.8,170.7c0.4-2.1,1.2-4.1,0.7-6.3c-0.6-2.4-2.3-4.3-4-5.9c-0.1-0.1-0.3,0.1-0.2,0.2
						c1.7,1.6,3.4,3.5,3.9,5.8c0.5,2.1-0.3,4.1-0.7,6.1C309.5,170.8,309.7,170.9,309.8,170.7L309.8,170.7z"/>
				</g>
			</g>
			<g>
				<g>
					<path fill="#FFFFFF" d="M252.8,212.5c-2.2,1.2-3.4,3.6-3.2,6.1c0,0.2,0.3,0.2,0.3,0c-0.3-2.4,1-4.7,3-5.8
						C253.1,212.7,252.9,212.4,252.8,212.5L252.8,212.5z"/>
				</g>
			</g>
			<g>
				<g>
					<path fill="#FFFFFF" d="M310.4,181.5c0.8-1.6,1-3.3,0.6-5c-0.4-1.9-1.6-3.7-1.3-5.8c0-0.2-0.2-0.3-0.3-0.1
						c-0.3,1.7,0.5,3.3,1,4.9c0.6,2,0.6,4-0.3,5.8C310.1,181.5,310.4,181.7,310.4,181.5L310.4,181.5z"/>
				</g>
			</g>
		</g>
		<g>
			<g>
				<g>
					<path fill="#363039" d="M270.5,303.2c0.2,1,0.2,2,0.1,2.9c0,0.2,0.3,0.2,0.3,0c0.1-1,0-2-0.1-3
						C270.8,303,270.5,303,270.5,303.2L270.5,303.2z"/>
				</g>
			</g>
			<g>
				<g>
					<path fill="#363039" d="M279.2,303.9c0,0.9,0,1.7,0,2.6c0,0.2,0.3,0.2,0.3,0c0-0.9,0-1.7,0-2.6
						C279.5,303.7,279.2,303.7,279.2,303.9L279.2,303.9z"/>
				</g>
			</g>
			<g>
				<g>
					<path fill="#363039" d="M288.8,304.1c0,0.6,0,1.3,0,1.9c0,0.2,0.3,0.2,0.3,0c0-0.6,0-1.3,0-1.9
						C289.1,303.9,288.8,303.9,288.8,304.1L288.8,304.1z"/>
				</g>
			</g>
			<g>
				<g>
					<path fill="#363039" d="M296.1,304.2c0,0.6,0,1.2,0,1.7c0,0.2,0.3,0.2,0.3,0c0-0.6,0-1.2,0-1.7
						C296.4,304,296.1,304,296.1,304.2L296.1,304.2z"/>
				</g>
			</g>
			<g>
				<g>
					<path fill="#363039" d="M304.7,303.4c0.1,0.6,0.1,1.2,0.2,1.7c0,0.2,0.3,0.2,0.3,0c-0.1-0.6-0.1-1.2-0.2-1.7
						C304.9,303.2,304.6,303.2,304.7,303.4L304.7,303.4z"/>
				</g>
			</g>
			<g>
				<g>
					<path fill="#363039" d="M310.8,302.8c0,0.5,0,1,0,1.6c0,0.2,0.3,0.2,0.3,0c0-0.5,0-1,0-1.6
						C311.1,302.6,310.8,302.6,310.8,302.8L310.8,302.8z"/>
				</g>
			</g>
			<g>
				<g>
					<path fill="#363039" d="M330.9,256.8c2.8-2.2,6.3-3.4,9.9-3.5c0.2,0,0.2-0.3,0-0.3c-3.7,0-7.2,1.3-10.1,3.5
						C330.5,256.7,330.7,256.9,330.9,256.8L330.9,256.8z"/>
				</g>
			</g>
			<g>
				<g>
					<path fill="#363039" d="M230.5,256.1c1.7-0.1,3.4,0.1,5.1,0.4c1.7,0.3,3.4,0.7,5,1.4c0.2,0.1,0.3-0.2,0.1-0.2
						c-1.6-0.7-3.3-1.1-5-1.4c-1.7-0.3-3.5-0.5-5.2-0.4C230.3,255.9,230.3,256.2,230.5,256.1L230.5,256.1z"/>
				</g>
			</g>
			<g>
				<g>
					<path fill="#363039" d="M295.4,213.4c1.5-3.2,4.7-4.9,7.7-6.5c0.2-0.1,0-0.3-0.1-0.2c-3,1.6-6.3,3.3-7.8,6.6
						C295,213.4,295.3,213.6,295.4,213.4L295.4,213.4z"/>
				</g>
			</g>
			<g>
				<g>
					<path fill="#363039" d="M279.8,213.2c-1.4-2.1-3.3-3.9-5.5-5.3c-0.2-0.1-0.3,0.2-0.1,0.2c2.1,1.3,4,3.1,5.4,5.2
						C279.6,213.5,279.9,213.4,279.8,213.2L279.8,213.2z"/>
				</g>
			</g>
			<g>
				<g>
					<path fill="#363039" d="M269.4,211c1.8,0.2,2.9,2,4,3.3c1.2,1.4,2.5,2.7,3.8,4c2.6,2.5,5.4,4.7,8.4,6.7
						c0.2,0.1,0.3-0.1,0.1-0.2c-3.2-2.1-6.2-4.6-9-7.3c-1.4-1.3-2.6-2.7-3.9-4.2c-0.9-1.1-1.9-2.4-3.5-2.5
						C269.2,210.7,269.2,211,269.4,211L269.4,211z"/>
				</g>
			</g>
			<g>
				<g>
					<path fill="#363039" d="M272.1,213.3c-1,0.4-2,0.8-3,1.1c-0.2,0.1-0.1,0.3,0.1,0.3c1-0.4,2-0.8,3-1.1
						C272.4,213.5,272.3,213.2,272.1,213.3L272.1,213.3z"/>
				</g>
			</g>
			<g>
				<g>
					<path fill="#363039" d="M291.9,224.5c1.2-0.9,2.4-1.9,3.3-3c1-1.3,1.7-2.7,2.5-4.1c0.8-1.6,2-3,3.3-4.3c1.1-1.2,2.3-2.5,3.9-3
						c0.2-0.1,0.1-0.3-0.1-0.3c-1.4,0.5-2.5,1.5-3.5,2.5c-1.2,1.2-2.3,2.5-3.2,3.9c-0.9,1.4-1.5,3.1-2.5,4.4c-1,1.4-2.3,2.6-3.7,3.6
						C291.6,224.4,291.8,224.6,291.9,224.5L291.9,224.5z"/>
				</g>
			</g>
			<g>
				<g>
					<path fill="#363039" d="M303.2,212.6c0.9,0,1.7,0.2,2.4,0.7c0.2,0.1,0.3-0.1,0.1-0.2c-0.8-0.5-1.7-0.8-2.6-0.7
						C303,212.3,303,212.6,303.2,212.6L303.2,212.6z"/>
				</g>
			</g>
			<g>
				<g>
					<path fill="#363039" d="M283.3,225.2c-0.4,5.8-0.9,11.7-1.3,17.5c0,0.2,0.3,0.2,0.3,0c0.4-5.8,0.9-11.7,1.3-17.5
						C283.6,225.1,283.3,225.1,283.3,225.2L283.3,225.2z"/>
				</g>
			</g>
			<g>
				<g>
					<path fill="#363039" d="M293.2,225.1c0.4,5.3,0.5,10.7,0.3,16c0,0.2,0.3,0.2,0.3,0c0.2-5.3,0.1-10.7-0.3-16
						C293.4,224.9,293.2,224.9,293.2,225.1L293.2,225.1z"/>
				</g>
			</g>
			<g>
				<g>
					<path fill="#363039" d="M293.8,241.8c0,0.5,0,0.9,0,1.4c0,0.2,0.3,0.2,0.3,0c0-0.5,0-0.9,0-1.4
						C294.1,241.7,293.8,241.7,293.8,241.8L293.8,241.8z"/>
				</g>
			</g>
			<g>
				<g>
					<path fill="#363039" d="M282.2,243.7c0,0.6,0,1.2-0.3,1.8c-0.1,0.2,0.2,0.3,0.2,0.1c0.3-0.6,0.4-1.3,0.3-2
						C282.5,243.5,282.2,243.5,282.2,243.7L282.2,243.7z"/>
				</g>
			</g>
			<g>
				<g>
					<path fill="#363039" d="M268.5,268.3c10-4.9,20-9.8,29.9-14.7c2.8-1.4,5.7-2.8,8.5-4.2c0.2-0.1,0-0.3-0.1-0.2
						c-10,4.9-20,9.8-29.9,14.7c-2.8,1.4-5.7,2.8-8.5,4.2C268.2,268.1,268.4,268.3,268.5,268.3L268.5,268.3z"/>
				</g>
			</g>
			<g>
				<g>
					<path fill="#363039" d="M287.8,268.1c3.5-1.7,7.1-3.1,10.7-4.2c0.2-0.1,0.1-0.3-0.1-0.3c-3.7,1.2-7.3,2.6-10.8,4.3
						C287.5,267.9,287.6,268.2,287.8,268.1L287.8,268.1z"/>
				</g>
			</g>
			<g>
				<g>
					<path fill="#363039" d="M261.5,301.3c6,1.4,12.3,1.5,18.4,1.8c6.3,0.3,12.7,0.5,19,0.2c3.5-0.2,7-0.5,10.5-1.1
						c0.2,0,0.1-0.3-0.1-0.3c-12.3,2-25,1.2-37.4,0.4c-3.5-0.2-7-0.6-10.4-1.3C261.4,301,261.3,301.3,261.5,301.3L261.5,301.3z"/>
				</g>
			</g>
			<g>
				<g>
					<path fill="#363039" d="M264.7,302.7c0,0.7,0,1.4,0,2.1c0,0.2,0.3,0.2,0.3,0c0-0.7,0-1.4,0-2.1
						C265,302.5,264.7,302.5,264.7,302.7L264.7,302.7z"/>
				</g>
			</g>
		</g>
	</g>
	<g>
		<path fill="#B4C7E0" d="M428.5,289.6H121.6c-0.7,0-1.2-0.6-1.2-1.2v-8c0-0.7,0.6-1.2,1.2-1.2h306.9c0.7,0,1.2,0.6,1.2,1.2v8
			C429.7,289.1,429.2,289.6,428.5,289.6z"/>
		<g>
			<line fill="none" stroke="#363039" stroke-width="1.734" stroke-miterlimit="10" x1="171.6" y1="289.6" x2="171.6" y2="434.2"/>
			<line fill="none" stroke="#363039" stroke-width="1.734" stroke-miterlimit="10" x1="379.6" y1="289.6" x2="379.6" y2="434.2"/>
		</g>
	</g>
	<g>
		<path fill="#E8CACC" d="M323.9,276.8h-79.7c-2.4,0-4.4-2-4.4-4.4v-46.7c0-2.4,2-4.4,4.4-4.4h79.7c2.4,0,4.4,2,4.4,4.4v46.7
			C328.3,274.8,326.3,276.8,323.9,276.8z"/>
		<path fill="#F8ECED" d="M323.9,279.1h-79.7c-2.4,0-4.4-2-4.4-4.4V228c0-2.4,2-4.4,4.4-4.4h79.7c2.4,0,4.4,2,4.4,4.4v46.7
			C328.3,277.1,326.3,279.1,323.9,279.1z"/>
		<circle fill="#FFFFFF" cx="285.1" cy="251.3" r="5.3"/>
	</g>
	<g>
		<line fill="none" stroke="#363039" stroke-width="1.734" stroke-miterlimit="10" x1="391" y1="223.5" x2="391" y2="278"/>
		<path fill="#DD6A5B" d="M404.1,279.2h-26.2c-0.2,0-0.4-0.2-0.4-0.4v-1.6c0-0.2,0.2-0.4,0.4-0.4h26.2c0.2,0,0.4,0.2,0.4,0.4v1.6
			C404.4,279,404.3,279.2,404.1,279.2z"/>
		<ellipse fill="#F5DEBF" cx="391" cy="219.6" rx="9.9" ry="7.2"/>
		<path fill="#DD6A5B" d="M407.1,223.5h-31.7c-0.6,0-1.1-0.6-1-1.2l5.1-31.1c0.1-0.5,0.5-0.9,1-0.9h21.3c0.5,0,0.9,0.4,1,0.9
			l5.4,31.1C408.3,223,407.8,223.5,407.1,223.5z"/>
	</g>
	<g>
		<path fill="#363039" d="M376.8,434.8c0,0,38,2.8,57.6,0.6c2.1-0.2,4.1,0,4.3-2.6c0.2-3-12.9-1.4-12.9-1.4L376.8,434.8z"/>
		<path fill="#441816" d="M428,430.2l-51,4.5c-4.4,0.2-10.3-5.2-10.5-9.6l-1.8-39.1c-0.2-4.4,3.2-8.1,7.6-8.3l53.2-2.4
			c4.4-0.2,10.8,4.2,11,8.5l-1,38.1C435.7,426.3,432.3,430,428,430.2z"/>
		<path fill="#441816" d="M431.5,432.4l-53.2,2.4c-4.4,0.2-8.1-3.2-8.3-7.6l-1.8-39.1c-0.2-4.4,3.2-8.1,7.6-8.3l53.2-2.4
			c4.4-0.2,8.1,3.2,8.3,7.6l1.8,39.1C439.2,428.5,435.9,432.2,431.5,432.4z"/>
		<g>
			<g>
				<path fill="#363039" d="M372.9,380.2c-2.3,0.8-3.7,3.1-4.1,5.4c-0.3,1.5-0.2,3.1-0.2,4.7c0.1,1.7,0.1,3.3,0.2,5
					c0.3,6.8,0.7,13.6,1.2,20.4c0.3,3.8,0.6,7.6,0.9,11.4c0,0.2,0.3,0.2,0.3,0c-0.6-6.5-1.1-12.9-1.5-19.4c-0.2-3.2-0.4-6.5-0.5-9.7
					c-0.2-3.2-0.4-6.4-0.4-9.6c0-3.1,0.8-6.8,4.1-7.9C373.2,380.4,373.1,380.1,372.9,380.2L372.9,380.2z"/>
			</g>
		</g>
		<g>
			<g>
				<path fill="#363039" d="M375.6,379.8c7,0.1,14-0.2,21-0.9c3.5-0.3,6.9-0.6,10.4-0.8c3.4-0.1,6.9-0.2,10.3-0.2
					c3.9,0,7.9-0.1,11.8-0.5c0.2,0,0.2-0.3,0-0.3c-7,0.6-13.9,0.4-20.9,0.6c-6.9,0.2-13.8,1.1-20.7,1.5c-4,0.2-7.9,0.3-11.9,0.2
					C375.4,379.6,375.4,379.8,375.6,379.8L375.6,379.8z"/>
			</g>
		</g>
		<g>
			<g>
				<path fill="#363039" d="M390.6,404.1c10.1-0.5,20.1-0.9,30.2-1.4c3-0.1,5.9-0.3,8.9-0.4c0.2,0,0.2-0.3,0-0.3
					c-10.1,0.5-20.1,0.9-30.2,1.4c-3,0.1-5.9,0.3-8.9,0.4C390.4,403.9,390.4,404.1,390.6,404.1L390.6,404.1z"/>
			</g>
		</g>
		<g>
			<g>
				<path fill="#363039" d="M429.6,402.4c2.3-0.1,3.8-2.3,4.7-4.3c1.2-2.5,1.8-5.3,2.2-8c0.2-1.1,0.3-2.2,0.3-3.3
					c0-0.2-0.3-0.2-0.3,0c-0.1,2.2-0.4,4.3-0.9,6.4c-0.6,2.5-1.3,5.2-3,7.2c-0.8,0.9-1.8,1.7-3,1.8
					C429.5,402.1,429.5,402.4,429.6,402.4L429.6,402.4z"/>
			</g>
		</g>
		<g>
			<g>
				<path fill="#363039" d="M390.6,403.8c-2.9,0.4-5.5-1.9-7.3-3.9c-1.1-1.3-2.1-2.7-3.2-3.9c-1.2-1.5-2.5-2.9-3.7-4.3
					c-1.5-1.7-2.9-3.5-4.3-5.4c-0.1-0.1-0.4,0-0.2,0.1c2.4,3.3,5.1,6.3,7.8,9.4c2,2.4,3.8,5.1,6.4,6.9c1.3,0.9,2.9,1.6,4.6,1.4
					C390.7,404.1,390.7,403.8,390.6,403.8L390.6,403.8z"/>
			</g>
		</g>
		<path fill="#6F5E68" d="M398.4,409.9l-1.8,0.1c-1,0-1.9-0.8-2-1.8l-0.3-5.8c0-1,0.8-1.9,1.8-2l1.8-0.1c1,0,1.9,0.8,2,1.8l0.3,5.8
			C400.2,409,399.4,409.9,398.4,409.9z"/>
		<path fill="#6F5E68" d="M424.9,408.7l-1.7,0.1c-1,0-1.9-0.8-2-1.8l-0.3-5.8c0-1,0.8-1.9,1.8-2l1.7-0.1c1,0,1.9,0.8,2,1.8l0.3,5.8
			C426.8,407.8,426,408.7,424.9,408.7z"/>
		<path fill="#6F5E68" d="M365.2,389.5l2.5,2.2c0,0-6.5,43.2-21.2,44.3l-1.8-1.8C344.7,434.2,356.4,431.6,365.2,389.5z"/>
		<path fill="#6F5E68" d="M366.3,423.5c0,0-23.3,3.4-19.8,12.5l-1.8-1.8c0,0-5-8.3,21.6-13.8"/>
	</g>
	<g>
		<path fill="#D9B487" d="M192.8,279.1h-3.9c-5,0-9.1-4.1-9.1-9.1v-6.9c0-2.5,2-4.5,4.5-4.5h13.1c2.5,0,4.5,2,4.5,4.5v6.9
			C201.8,275.1,197.8,279.1,192.8,279.1z"/>
		<path fill="none" stroke="#D9B487" stroke-width="2.5946" stroke-miterlimit="10" d="M207.4,269c0,3.5-2.1,5.6-4.6,5.6
			s-4.6-0.1-4.6-3.6c0-3.5,2.4-6.2,4.6-7.4C205.1,262.3,207.4,265.5,207.4,269z"/>
		<g>
			<path fill="#F8ECED" d="M191,257.1c-1.1-0.6-2.1-1.4-3-2.3c-0.9-0.9-1.8-2.1-2.1-3.7c-0.3-1.5,0-3.1,0.5-4.3
				c0.5-1.3,1.1-2.4,1.7-3.4c1.2-2,2.2-3.9,2.8-6c0.3-1,0.4-2,0.2-3c-0.1-1-0.6-2-1.3-3c-0.1-0.1,0-0.2,0.1-0.3c0.1,0,0.2,0,0.2,0
				c1.1,0.5,2.1,1.5,2.8,2.8c0.6,1.3,0.8,2.7,0.7,4.1c-0.2,2.7-1.4,5.2-2.6,7.2c-1.1,2-2.4,4-2.3,5.6c0,0.8,0.3,1.8,0.9,2.8
				c0.5,1,1.2,2,1.8,3l0,0c0.1,0.2,0,0.4-0.1,0.4C191.2,257.2,191.1,257.2,191,257.1z"/>
		</g>
	</g>
</g>
<g id="DESIGNED_BY_FREEPIK">
</g>
</svg>
